<?xml version="1.0" encoding="UTF-8"?>
<svg id="PACK_de_logotipos" data-name="PACK de logotipos" xmlns="http://www.w3.org/2000/svg" viewBox="0 0 1920 616.13">
  <defs>
    <style>
      .cls-1 {
        fill: #00d47e;
      }

      .cls-2 {
        fill: #013841;
      }
    </style>
  </defs>
  <g>
    <rect class="cls-1" width="616.13" height="616.13" rx="142.62" ry="142.62"/>
    <path class="cls-2" d="M234.57,172.49h11.54l61.92,38.27.04.04.04.02,58.39,36.1c7.94,4.93,17.69,4.96,25.04.11l101.87-67.48,7.12-4.71v-57.41l-34.85,22.4-82.27,54.47h-15.33l-54.92-33.94h-.02s-5.07-3.16-5.07-3.16l-8.28-5.13-50.15-31.03c-3.52-2.15-7.4-3.35-11.24-3.61-4.84-.33-9.71.86-13.79,3.53l-105.12,69.68-2.99,1.98-.9.58v181.74l9.53-6.27.16-.09,6.09-4,1.37-.91,101.64-67.34h11.87l61.75,38.2.04.04v-.04l.04.02,58.39,36.12c7.94,4.95,17.69,4.98,25.04.11l88.56-58.65v65.63l-97.56,64.63h-13.53l-60.89-37.63-.04-.02-.04-.04-58.39-36.1c-7.94-4.93-17.69-4.96-25.04-.11l-101.87,67.48-7.12,4.71v58.08l34.85-23.06,83.89-55.55h11.98l55.86,34.52h.02s.28.18.28.18l5.59,3.47h0s4.6,2.87,4.6,2.87l53.83,33.3c3.52,2.15,6.78,3.98,10.62,4.24,4.84.33,9.71-.86,13.79-3.53l105.74-70.31,2.99-1.98.9-.58v-181.74l-9.53,6.27-.16.09-6.09,4-1.37.91-101.34,67.14h-12.5l-61.43-38-.04-.04v.04l-.04-.02-58.39-36.12c-7.94-4.95-17.69-4.98-25.04-.11l-88.56,58.65v-65.63l98.52-65.26Z"/>
  </g>
  <g>
    <path class="cls-2" d="M737.29,404.87v-193.02h44.15v26.96h6.64c3.38-7.29,9.51-14.19,18.37-20.71,8.85-6.51,22.27-9.77,40.24-9.77,14.85,0,28,3.39,39.46,10.16,11.46,6.78,20.38,16.15,26.76,28.13,6.38,11.98,9.57,26.18,9.57,42.59v115.65h-44.93v-112.14c0-15.63-3.85-27.28-11.53-34.97-7.69-7.68-18.56-11.53-32.63-11.53-15.89,0-28.4,5.28-37.51,15.82-9.12,10.55-13.68,25.59-13.68,45.13v97.68h-44.93Z"/>
    <path class="cls-2" d="M1052.22,410.34c-19.28,0-36.28-4.1-50.99-12.31-14.72-8.21-26.18-19.79-34.38-34.77-8.21-14.98-12.31-32.49-12.31-52.55v-4.69c0-20.32,4.04-37.9,12.11-52.75,8.07-14.85,19.4-26.37,33.99-34.58,14.58-8.21,31.39-12.31,50.4-12.31s35.17,4.1,49.23,12.31c14.07,8.21,25.01,19.73,32.82,34.58,7.81,14.85,11.72,32.17,11.72,51.97v16.02h-144.96c.52,15.11,5.86,27.22,16.02,36.34,10.16,9.12,22.66,13.68,37.51,13.68s25.4-3.19,32.43-9.57c7.03-6.38,12.37-13.61,16.02-21.69l37.12,19.15c-3.65,7.03-8.93,14.52-15.83,22.47-6.9,7.95-16.09,14.72-27.55,20.32-11.47,5.6-25.92,8.4-43.37,8.4ZM1000.25,287.26h98.85c-1.04-12.76-5.93-22.92-14.65-30.48-8.73-7.55-19.99-11.33-33.8-11.33s-25.79,3.78-34.38,11.33c-8.6,7.56-13.94,17.72-16.02,30.48Z"/>
    <path class="cls-2" d="M1167.87,309.14v-5.86c0-20.32,4.04-37.71,12.11-52.16,8.07-14.46,18.88-25.53,32.43-33.21,13.54-7.68,28.39-11.53,44.54-11.53,18.23,0,32.1,3.26,41.61,9.77,9.51,6.51,16.47,13.55,20.9,21.1h6.64v-25.4h43.76v229.75c0,12.76-3.65,22.86-10.94,30.28-7.3,7.42-17.19,11.14-29.69,11.14h-129.72v-39.07h114.48c7.55,0,11.33-3.91,11.33-11.72v-55.87h-6.64c-2.87,4.43-6.77,8.93-11.72,13.48-4.95,4.56-11.47,8.4-19.54,11.53-8.08,3.13-18.23,4.69-30.48,4.69-16.16,0-31-3.84-44.54-11.53-13.55-7.68-24.36-18.76-32.43-33.21-8.07-14.46-12.11-31.84-12.11-52.16ZM1269.45,366.58c16.15,0,29.56-5.14,40.25-15.43,10.68-10.29,16.02-24.68,16.02-43.17v-3.91c0-18.76-5.27-33.21-15.83-43.37-10.55-10.16-24.03-15.24-40.44-15.24s-29.63,5.08-40.44,15.24c-10.81,10.16-16.22,24.62-16.22,43.37v3.91c0,18.5,5.4,32.89,16.22,43.17,10.81,10.29,24.29,15.43,40.44,15.43Z"/>
    <path class="cls-2" d="M1504.67,410.34c-19.28,0-36.53-3.97-51.77-11.92-15.24-7.94-27.22-19.27-35.95-33.99-8.73-14.71-13.09-32.36-13.09-52.94v-6.25c0-20.57,4.36-38.29,13.09-53.14,8.72-14.85,20.71-26.18,35.95-33.99,15.24-7.81,32.49-11.72,51.77-11.72s36.47,3.91,51.58,11.72c15.1,7.81,27.02,19.14,35.75,33.99,8.72,14.85,13.09,32.56,13.09,53.14v6.25c0,20.58-4.36,38.23-13.09,52.94-8.73,14.72-20.65,26.05-35.75,33.99-15.11,7.94-32.3,11.92-51.58,11.92ZM1504.67,370.49c16.41,0,29.83-5.27,40.25-15.82,10.42-10.55,15.63-25.33,15.63-44.35v-3.91c0-19.01-5.21-33.8-15.63-44.35-10.42-10.55-23.84-15.82-40.25-15.82s-29.83,5.28-40.24,15.82c-10.42,10.55-15.63,25.34-15.63,44.35v3.91c0,19.02,5.21,33.8,15.63,44.35,10.41,10.55,23.83,15.82,40.24,15.82Z"/>
    <path class="cls-2" d="M1753.17,410.34c-18.24,0-32.24-3.19-42-9.57-9.77-6.38-16.87-13.48-21.3-21.29h-6.64v25.4h-44.15V131.36h44.93v104.71h6.64c2.86-5.21,6.84-10.02,11.92-14.46,5.08-4.43,11.72-8.07,19.93-10.94,8.21-2.86,18.43-4.3,30.67-4.3,15.88,0,30.48,3.85,43.76,11.53,13.28,7.69,23.96,18.95,32.04,33.8,8.07,14.85,12.11,32.69,12.11,53.53v6.25c0,20.84-4.04,38.68-12.11,53.53-8.08,14.85-18.82,26.12-32.24,33.8-13.42,7.68-27.94,11.53-43.56,11.53ZM1739.88,371.27c16.15,0,29.56-5.27,40.25-15.82,10.68-10.55,16.02-25.59,16.02-45.13v-3.91c0-19.79-5.27-34.9-15.83-45.32-10.55-10.42-24.03-15.63-40.44-15.63s-29.63,5.21-40.44,15.63c-10.81,10.42-16.22,25.53-16.22,45.32v3.91c0,19.54,5.4,34.58,16.22,45.13,10.81,10.55,24.29,15.82,40.44,15.82Z"/>
    <path class="cls-2" d="M1875.07,404.87v-193.02h44.93v193.02h-44.93ZM1875.07,182.49v-51.12h44.93v51.12h-44.93Z"/>
  </g>
</svg>